<svg width="14" height="14" viewBox="0 0 14 14" fill="none" xmlns="http://www.w3.org/2000/svg">
<path fill-rule="evenodd" clip-rule="evenodd" d="M6.5 2V0H7.5V2H6.5ZM3.35355 2.64645L1.35355 0.646454L0.646446 1.35356L2.64645 3.35356L3.35355 2.64645ZM13.3536 12.6465L11.3536 10.6465L10.6464 11.3536L12.6464 13.3536L13.3536 12.6465ZM7 10C8.65685 10 10 8.65685 10 7C10 5.34315 8.65685 4 7 4C5.34315 4 4 5.34315 4 7C4 8.65685 5.34315 10 7 10ZM7 11C9.20914 11 11 9.20914 11 7C11 4.79086 9.20914 3 7 3C4.79086 3 3 4.79086 3 7C3 9.20914 4.79086 11 7 11ZM12.6464 0.646454L10.6464 2.64645L11.3536 3.35356L13.3536 1.35356L12.6464 0.646454ZM2.64645 10.6465L0.646446 12.6465L1.35355 13.3536L3.35355 11.3536L2.64645 10.6465ZM6.5 12V14H7.5V12H6.5ZM2 7.5H0V6.5H2L2 7.5ZM12 7.5H14V6.5H12V7.5Z" fill="#1A1E29"/>
</svg>
