<svg width="16" height="10" viewBox="0 0 16 10" fill="none" xmlns="http://www.w3.org/2000/svg">
<path d="M15.8574 8.14269C15.8144 8.07068 15.5484 7.49264 14.2683 6.30455C12.9282 5.06046 13.1082 5.26248 14.7223 3.11132C15.7054 1.80122 16.0984 1.00116 15.9754 0.659134C15.8584 0.33311 15.1354 0.419116 15.1354 0.419116L12.7312 0.433117C12.7312 0.433117 12.5532 0.409115 12.4202 0.488121C12.2911 0.566127 12.2081 0.74614 12.2081 0.74614C12.2081 0.74614 11.8271 1.76022 11.3191 2.62228C10.248 4.44141 9.81896 4.53742 9.64395 4.42441C9.23692 4.16139 9.33892 3.36633 9.33892 2.80229C9.33892 1.03916 9.60594 0.304107 8.81789 0.114093C8.55587 0.0510885 8.36385 0.00908539 7.6948 0.00208487C6.83674 -0.0069158 6.10968 0.00508509 5.69865 0.2061C5.42463 0.34011 5.21361 0.639132 5.34262 0.656134C5.50164 0.677135 5.86166 0.753141 6.05268 1.01316C6.2997 1.34819 6.2907 2.10224 6.2907 2.10224C6.2907 2.10224 6.43271 4.17739 5.95967 4.43541C5.63465 4.61243 5.18961 4.2514 4.23454 2.60028C3.7455 1.75522 3.37548 0.820146 3.37548 0.820146C3.37548 0.820146 3.30447 0.646133 3.17746 0.553126C3.02345 0.440118 2.80743 0.404115 2.80743 0.404115L0.521262 0.418116C0.521262 0.418116 0.178237 0.428117 0.0522272 0.577128C-0.0597812 0.710138 0.0432265 0.984158 0.0432265 0.984158C0.0432265 0.984158 1.83336 5.17147 3.85951 7.28263C5.71865 9.21777 7.82881 9.09076 7.82881 9.09076H8.78488C8.78488 9.09076 9.0739 9.05876 9.22092 8.89975C9.35693 8.75374 9.35193 8.47971 9.35193 8.47971C9.35193 8.47971 9.33292 7.19662 9.92897 7.00761C10.516 6.82159 11.2701 8.2477 12.0691 8.79674C12.6732 9.21177 13.1322 9.12076 13.1322 9.12076L15.2694 9.09076C15.2694 9.09076 16.3875 9.02176 15.8574 8.14269Z" fill="#FF7E00"/>
</svg>
